<svg id="Layer_1" enable-background="new 0 0 512.036 512.036" height="512" viewBox="0 0 512.036 512.036" width="512" xmlns="http://www.w3.org/2000/svg"><g><g><path d="m323.696 188.365c-35.27-55.018-119.416-167.553-122.98-172.316l-12.01-16.049-20 260.536 20 250.5c101.334 0 183.775-82.441 183.775-183.775.001-42.256-15.957-87.69-48.785-138.896z" fill="#7fc0fd"/><path d="m176.696 16.048c-3.564 4.764-87.71 117.299-122.98 172.316-32.827 51.207-48.785 96.64-48.785 138.896 0 101.334 82.441 183.775 183.775 183.775v-511.035z" fill="#9dcefd"/><path d="m188.706 442.036c-62.736 0-113.775-51.04-113.775-113.775 0-28.059 12.689-62.08 37.716-101.118l25.256 16.191c-21.878 34.127-32.972 62.7-32.972 84.926 0 46.194 37.582 83.775 83.775 83.775z" fill="#fffbf5"/></g><g><path d="m357.105 212.036-10 150 10 150c82.71 0 150-67.29 150-150s-67.289-150-150-150z" fill="#dcd2cd"/><path d="m207.105 362.036c0 82.71 67.289 150 150 150v-150-150c-82.71 0-150 67.29-150 150z" fill="#efe2dd"/></g><g><path d="m447.169 335.409-21.213-21.214-32.841 32.841h-21.01v-21.01l32.842-32.84-21.213-21.213-26.628 26.627-10 63.436 10 63.436 26.628 26.628 21.213-21.213-32.842-32.841v-21.01h21.01l32.841 32.841 21.213-21.212-26.628-26.629z" fill="#f7f0eb"/><path d="m357.105 298.601-26.628-26.628-21.213 21.213 32.841 32.84v21.01h-21.009l-32.841-32.841-21.213 21.213 26.627 26.628-26.627 26.629 21.213 21.212 32.841-32.841h21.009v21.01l-32.841 32.841 21.213 21.213 26.628-26.628h.001v-126.872z" fill="#fffbf5"/></g></g></svg>