<svg id="Capa_1" enable-background="new 0 0 497 497" height="512" viewBox="0 0 497 497" width="512" xmlns="http://www.w3.org/2000/svg"><g><path d="m477.045 281.166.063-.072c22.016-25.076 26.073-61.215 10.165-90.548l-.049-.089.002-.008c9.02-32.176-2.997-66.562-30.096-86.114l-.001-.001-.025-.141c-5.875-32.821-31.566-58.513-64.388-64.388l-.141-.025c-19.553-27.099-53.939-39.116-86.115-30.096l-.008.002-.089-.049c-29.333-15.909-65.472-11.852-90.548 10.165l-.072.063h-.007c-33.376-1.605-64.207 17.788-77.213 48.567l-.009.02-5.291 149.779 167.05 167.05 128.182-26.887.02-.008c30.779-13.007 50.172-43.838 48.567-77.214z" fill="#dcdcdc"/><g fill="#cececc"><path d="m139.929 143.547c66.029-66.03 139.543-112.479 205.938-134.781-12.728-2.938-26.251-2.77-39.405.918l-.008.002-.089-.048c-29.333-15.909-65.472-11.852-90.548 10.165l-.072.063h-.007c-33.376-1.604-64.207 17.788-77.213 48.567l-.009.02-2.803 79.366c1.401-1.426 2.797-2.853 4.216-4.272z"/><path d="m448.319 346.317c9.739-8.078 17.38-18.333 22.337-29.856-7.005 9.996-14.463 19.96-22.337 29.856z"/></g><circle cx="202.3" cy="142.164" fill="#60d9a7" r="71.027"/><circle cx="354.746" cy="294.611" fill="#60d9a7" r="71.027"/><circle cx="250.775" cy="246.136" fill="#ffb25a" r="85.165"/><path d="m438.489 360.298c-.201-.201-.409-.396-.616-.591-73.735-64.777-145.482-89.393-212.172-88.317l-97.886 222.33c144.683-14.11 254.169-64.538 304.66-92.029 15.381-8.373 18.281-29.126 6.014-41.393z" fill="#5c586f"/><path d="m139.929 143.547c26.458-26.458 54.118-49.756 82.04-69.633-24.023-6.899-50.968-.898-69.893 18.027-16.301 16.301-23.01 38.553-20.151 59.762 2.639-2.73 5.299-5.451 8.004-8.156z" fill="#00cd8c"/><path d="m137.383 59.217c-11.682-13.293-33.002-11.047-41.482 4.479-27.371 50.069-78.34 160.008-92.532 305.579-1.525 15.634-2.626 31.679-3.227 48.106-1.635 44.657 34.91 81.202 79.567 79.567 16.426-.601 32.472-1.702 48.106-3.227 54.189-61.94 96.527-138.109 97.886-222.331 1.075-66.69-23.541-138.437-88.318-212.173z" fill="#6a647f"/><g><g><g><ellipse cx="299.726" cy="76.235" fill="#ff8997" rx="25.13" ry="31.557" transform="matrix(.707 -.707 .707 .707 33.882 234.268)"/></g><g><ellipse cx="420.676" cy="197.185" fill="#ff8997" rx="25.13" ry="31.557" transform="matrix(.707 -.707 .707 .707 -16.218 355.216)"/></g></g></g><g><path d="m337.385 85.827c-2.929-2.929-2.929-7.678 0-10.607 2.932-2.932 2.932-7.703 0-10.635s-7.703-2.932-10.636 0c-2.929 2.929-7.678 2.929-10.606 0-2.929-2.929-2.929-7.678 0-10.607 8.781-8.781 23.068-8.78 31.849 0 8.781 8.781 8.781 23.068 0 31.848-2.929 2.93-7.678 2.93-10.607.001z" fill="#423e4f"/></g><g><path d="m432.326 180.768c-2.929-2.929-2.929-7.678 0-10.607 1.42-1.42 2.203-3.309 2.203-5.318 0-6.682-8.132-10.023-12.838-5.318-2.929 2.929-7.678 2.929-10.606 0-2.929-2.929-2.929-7.678 0-10.607 8.801-8.801 23.046-8.802 31.848 0 4.254 4.253 6.596 9.909 6.597 15.924 0 6.016-2.343 11.671-6.596 15.924-2.93 2.93-7.679 2.931-10.608.002z" fill="#423e4f"/></g><g><path d="m348.375 118.007c.284-4.132 3.858-7.25 7.996-6.969 4.132.284 7.252 3.864 6.969 7.996-.566 8.253 6.259 15.104 14.537 14.536 4.134-.281 7.712 2.836 7.996 6.969.284 4.132-2.836 7.712-6.969 7.996-17.334 1.188-31.719-13.182-30.529-30.528z" fill="#423e4f"/></g><path d="m139.929 143.547c11.825-11.825 23.893-23.006 36.115-33.549-10.861-16.795-23.685-33.735-38.66-50.78-11.682-13.293-33.002-11.047-41.482 4.479-26 47.56-73.287 149.145-90.125 283.971 22.533-65.919 68.723-138.693 134.152-204.121z" fill="#5c586f"/></g></svg>