<svg id="Layer_1" enable-background="new 0 0 512 512" height="512" viewBox="0 0 512 512" width="512" xmlns="http://www.w3.org/2000/svg"><g><g fill="#e8e6f2"><path d=""/><rect height="0" width="0" x="256" y="256"/><path d=""/></g><path d="m256 0h-52.068c-17.279 0-34.203 3.432-49.863 9.918l7.128 112.247 94.803 133.835 30-171.413z" fill="#ff8080"/><path d="m256 256-101.93-246.082c-15.66 6.486-30.054 16.027-42.272 28.245l-73.635 73.635c-12.217 12.218-21.758 26.612-28.245 42.272l92.35 84.245z" fill="#fff5f5"/><path d="m9.918 154.07c-6.486 15.659-9.918 32.584-9.918 49.862v104.135c0 17.279 3.432 34.203 9.918 49.863l118.082-7.735 128-94.195z" fill="#ffe666"/><path d="m256 256-246.082 101.93c6.486 15.659 16.027 30.054 28.245 42.272l73.635 73.635c12.218 12.218 26.612 21.759 42.272 28.245l65.965-98.936z" fill="#fff5f5"/><path d="m256 256-101.93 246.082c15.66 6.486 32.584 9.918 49.863 9.918h52.067l23.055-95.19z" fill="#3bf"/><path d="m256 512h52.067c17.279 0 34.203-3.432 49.863-9.918l-11.93-118.082-90-128z" fill="#37f"/><path d="m357.93 502.082c15.66-6.486 30.054-16.027 42.272-28.245l73.635-73.635c12.218-12.218 21.759-26.612 28.245-42.272l-96.628-70.935-149.454-30.995z" fill="#e8e6f2"/><path d="m512 203.932c0-17.279-3.432-34.203-9.918-49.863l-113.709 7.382-132.373 94.549 246.082 101.93c6.486-15.66 9.918-32.584 9.918-49.863z" fill="#24b383"/><path d="m502.082 154.07c-6.486-15.659-16.027-30.054-28.245-42.272l-73.635-73.635c-12.218-12.217-26.612-21.758-42.272-28.245l-71.93 74.669-30 171.413z" fill="#e8e6f2"/><path d="m357.93 9.918c-15.659-6.486-32.584-9.918-49.862-9.918h-52.068v256z" fill="#f37"/></g></svg>