<?xml version="1.0" encoding="iso-8859-1"?>
<!-- Generator: Adobe Illustrator 19.0.0, SVG Export Plug-In . SVG Version: 6.00 Build 0)  -->
<svg version="1.1" id="Capa_1" xmlns="http://www.w3.org/2000/svg" xmlns:xlink="http://www.w3.org/1999/xlink" x="0px" y="0px"
	 viewBox="0 0 512 512" style="enable-background:new 0 0 512 512;" xml:space="preserve">
<circle style="fill:#FC4629;" cx="256" cy="256" r="256"/>
<path style="fill:#AA0031;" d="M508.226,299.961L326.399,118.134L120.538,394.866l116.43,116.43
	C243.253,511.758,249.598,512,256,512C382.394,512,487.381,420.397,508.226,299.961z"/>
<path style="fill:#57555C;" d="M340.938,151.558v76.129c0,31.332-33.786,56.625-75.5,56.625s-75.5-25.293-75.5-56.625v-76.129
	L340.938,151.558L340.938,151.558z"/>
<path style="fill:#3C3A41;" d="M340.938,151.558v76.129c0,31.332-33.786,56.625-75.5,56.625V151.558H340.938z"/>
<path style="fill:#EFE6DE;" d="M340.938,151.558c0,31.332-33.786,56.625-75.5,56.625s-75.5-25.293-75.5-56.625
	c0-31.333,33.786-56.625,75.5-56.625S340.938,120.225,340.938,151.558z"/>
<path style="fill:#DFCCBF;" d="M340.938,151.558c0,31.332-33.786,56.625-75.5,56.625V94.933
	C307.152,94.933,340.938,120.225,340.938,151.558z"/>
<path style="fill:#FC4629;" d="M303.188,151.558c0,10.381-16.988,18.875-37.75,18.875s-37.75-8.494-37.75-18.875
	s16.988-18.875,37.75-18.875S303.188,141.177,303.188,151.558z"/>
<path style="fill:#FF2615;" d="M303.188,151.558c0,10.381-16.988,18.875-37.75,18.875v-37.75
	C286.2,132.683,303.188,141.177,303.188,151.558z"/>
<path style="fill:#57555C;" d="M256,284.313v76.129c0,31.332-33.786,56.625-75.5,56.625S105,391.774,105,360.442v-76.129H256z"/>
<path style="fill:#3C3A41;" d="M256,284.313v76.129c0,31.332-33.786,56.625-75.5,56.625V284.313H256z"/>
<path style="fill:#EFE6DE;" d="M256,284.313c0,31.332-33.786,56.625-75.5,56.625S105,315.645,105,284.313
	c0-31.333,33.786-56.625,75.5-56.625S256,252.979,256,284.313z"/>
<path style="fill:#DFCCBF;" d="M256,284.313c0,31.332-33.786,56.625-75.5,56.625v-113.25C222.214,227.688,256,252.979,256,284.313z"
	/>
<path style="fill:#FC4629;" d="M218.25,284.313c0,10.381-16.988,18.875-37.75,18.875s-37.75-8.494-37.75-18.875
	s16.988-18.875,37.75-18.875S218.25,273.931,218.25,284.313z"/>
<path style="fill:#FF2615;" d="M218.25,284.313c0,10.381-16.988,18.875-37.75,18.875v-37.75
	C201.262,265.438,218.25,273.931,218.25,284.313z"/>
<path style="fill:#57555C;" d="M407,284.313v76.129c0,31.332-33.786,56.625-75.5,56.625S256,391.774,256,360.442v-76.129H407z"/>
<path style="fill:#3C3A41;" d="M407,284.313v76.129c0,31.332-33.786,56.625-75.5,56.625V284.313H407z"/>
<path style="fill:#EFE6DE;" d="M407,284.313c0,31.332-33.786,56.625-75.5,56.625S256,315.645,256,284.313
	c0-31.333,33.786-56.625,75.5-56.625S407,252.979,407,284.313z"/>
<path style="fill:#DFCCBF;" d="M407,284.313c0,31.332-33.786,56.625-75.5,56.625v-113.25C373.214,227.688,407,252.979,407,284.313z"
	/>
<path style="fill:#FC4629;" d="M369.25,284.313c0,10.381-16.988,18.875-37.75,18.875s-37.75-8.494-37.75-18.875
	s16.988-18.875,37.75-18.875S369.25,273.931,369.25,284.313z"/>
<path style="fill:#FF2615;" d="M369.25,284.313c0,10.381-16.988,18.875-37.75,18.875v-37.75
	C352.262,265.438,369.25,273.931,369.25,284.313z"/>
<g>
</g>
<g>
</g>
<g>
</g>
<g>
</g>
<g>
</g>
<g>
</g>
<g>
</g>
<g>
</g>
<g>
</g>
<g>
</g>
<g>
</g>
<g>
</g>
<g>
</g>
<g>
</g>
<g>
</g>
</svg>
