<svg id="Layer_1" enable-background="new 0 0 512 512" height="512" viewBox="0 0 512 512" width="512" xmlns="http://www.w3.org/2000/svg"><g><g><g><g id="XMLID_860_"><g id="XMLID_861_"><g id="XMLID_862_"><g id="XMLID_863_"><g id="XMLID_864_"><g id="XMLID_865_"><g id="XMLID_866_"><g id="XMLID_867_"><g id="XMLID_868_"><g id="XMLID_869_"><g id="XMLID_870_"><g id="XMLID_871_"><g id="XMLID_872_"><g id="XMLID_873_"><g id="XMLID_874_"><circle cx="256" cy="256" fill="#ffe780" r="256"/></g></g></g></g></g></g></g></g></g></g></g></g></g></g></g></g></g><path d="m512 256c0-3.372-.086-6.725-.215-10.065l-103.956-106.982-283.6 256.264 116.305 116.305c5.118.305 10.271.478 15.466.478 141.385 0 256-114.615 256-256z" fill="#fed940"/><g><path d="m447.698 256c0 70.555-38.105 132.196-94.865 165.484-28.418 16.666-61.502-16.031-96.833-16.031-35.933 0-69.555 32.364-98.295 15.16-55.943-33.481-93.403-94.671-93.403-164.613 0-21.827 3.645-42.782 10.365-62.329v-.011c10.336-30.075 47.046-43.319 69.826-64.534 17.648-16.435 19.297-43.031 42.177-51.911 21.505-8.343 44.88-12.913 69.33-12.913s47.825 4.57 69.329 12.913c24.713 9.591 28.276 39.91 46.793 58.222 20.758 20.529 55.516 30.013 65.211 58.222v.011c6.72 19.548 10.365 40.503 10.365 62.33z" fill="#fc445f"/><path d="m447.7 256c0 70.55-38.11 132.2-94.87 165.48-28.41 16.67-61.5-16.03-96.83-16.03v-341.15c24.45 0 47.83 4.57 69.33 12.92 24.71 9.59 28.27 39.9 46.79 58.22 20.76 20.53 55.52 30.01 65.21 58.22v.01c6.72 19.55 10.37 40.5 10.37 62.33z" fill="#e00f5a"/><path d="m352.833 421.484c-28.418 16.666-61.502 26.214-96.833 26.214-35.933 0-69.555-9.881-98.295-27.084-53.674-167.775 72.576-235.254 87.242-242.447.892-.441 1.376-.656 1.376-.656h18.16s.677.301 1.935.935c17.064 8.515 140.153 76.586 86.415 243.038z" fill="#6ae1db"/><path d="m352.83 421.48c-28.41 16.67-61.5 26.22-96.83 26.22v-270.19h8.48s.68.3 1.94.94c3.12 1.56 9.8 5.11 18.29 10.89 37.9 25.83 112.02 96.16 68.12 232.14z" fill="#2fc1b6"/><g><path d="m259.978 160.393-3.978 8.365-4.161 8.752-1.538 3.226c-1.753-.914-3.537-1.763-5.355-2.57-50.051-22.106-122.089-2.753-170.28 15.494 18.343-53.373 59.588-96.102 112.004-116.445 40.6 24.418 61.351 58.512 69.329 74.393 2.754 5.473 3.979 8.785 3.979 8.785z" fill="#6ae1db"/><path d="m437.333 193.66c-48.395-18.332-120.831-37.772-170.914-15.214-1.602.72-3.172 1.484-4.72 2.29l-1.538-3.226-4.161-8.752-3.978-8.365s1.226-3.312 3.978-8.785c7.978-15.881 28.729-49.975 69.329-74.393 52.416 20.343 93.661 63.072 112.004 116.445z" fill="#2fc1b6"/></g><ellipse cx="256" cy="157.171" fill="#eef9ff" rx="55.91" ry="37.483"/><path d="m311.91 157.17c0 13.66-10.91 25.62-27.2 32.17-8.39 3.37-18.21 5.31-28.71 5.31v-74.96c30.88 0 55.91 16.78 55.91 37.48z" fill="#d2ebff"/></g></g></svg>