<svg id="Layer_1" enable-background="new 0 0 512.017 512.017" height="512" viewBox="0 0 512.017 512.017" width="512" xmlns="http://www.w3.org/2000/svg"><g><path d="m323.289 166.674h30v111.378h-30z" fill="#fff5f5" transform="matrix(.707 -.707 .707 .707 -58.152 304.335)"/><path d="m365.093 229.168h110v150h-110z" fill="#3bf" transform="matrix(.707 -.707 .707 .707 -92.037 386.138)"/><path d="m395.093 259.167h50v90h-50z" fill="#66e6ff" transform="matrix(.707 -.707 .707 .707 -92.036 386.141)"/><path d="m330 .008h-135l-50 96.111 185-20z" fill="#cfd3e6"/><path d="m0 .008v76.111l165 20-30-96.111z" fill="#e8e6f2"/><path d="m165 76.119-20 322.001 140-20 44.836-300.902.164-1.099z" fill="#e8e6f2"/><path d="m0 76.119 45 302.001 120 20v-322.001z" fill="#fff5f5"/><path d="m241.691 241.008c0-42.288-34.403-76.691-76.691-76.691v153.383c42.288 0 76.691-34.404 76.691-76.692z" fill="#ffb366"/><path d="m88.309 241.008c0 42.288 34.403 76.691 76.691 76.691v-153.382c-42.288 0-76.691 34.404-76.691 76.691z" fill="#ffe666"/><path d="m165 378.12-20 80 140-20v-60z" fill="#f37"/><path d="m165 378.12h-120v60l120 20z" fill="#ff8080"/><path d="m211.691 241.008c0-25.746-20.945-46.691-46.691-46.691v93.383c25.746 0 46.691-20.946 46.691-46.692z" fill="#ffe666"/><path d="m118.309 241.008c0 25.746 20.945 46.691 46.691 46.691v-93.383c-25.746.001-46.691 20.947-46.691 46.692z" fill="#ff9"/><path d="m165 512.008h120v-73.888h-120l-20 36.944z" fill="#b32453"/><path d="m45 438.12h120v73.889h-120z" fill="#f37"/><path d="m195 .008h-30l-20 48.055 20 56.945h30z" fill="#f37"/><path d="m135 .008h30v105h-30z" fill="#ff8080"/></g></svg>