<?xml version="1.0" encoding="iso-8859-1"?>
<!-- Generator: Adobe Illustrator 19.0.0, SVG Export Plug-In . SVG Version: 6.00 Build 0)  -->
<svg version="1.1" id="Capa_1" xmlns="http://www.w3.org/2000/svg" xmlns:xlink="http://www.w3.org/1999/xlink" x="0px" y="0px"
	 viewBox="0 0 512 512" style="enable-background:new 0 0 512 512;" xml:space="preserve">
<circle style="fill:#17ACE8;" cx="256" cy="256" r="256"/>
<path style="fill:#136EF1;" d="M110.818,352.43l159.185,159.185C404.875,504.343,512,392.686,512,256
	c0-4.316-0.11-8.607-0.322-12.871L428,159.451L110.818,352.43z"/>
<path style="fill:#57555C;" d="M428,311.832v47.166l-5.644,2.62C368.539,387.821,298.933,397.094,256,397.094
	c-46.157,0-90.367-10.683-126.648-30.84C101.334,350.735,84,320.701,84,287.645v-51.802l172,38.096L428,311.832z"/>
<path style="fill:#3C3A41;" d="M428,311.832v47.166l-5.644,2.62C368.539,387.821,298.933,397.094,256,397.094V273.939L428,311.832z"
	/>
<path style="fill:#BF0000;" d="M407.844,175.375l-161.922,40.514l82.103,46.359c4.435-13.102,32.855-26.405,69.741-26.405
	c6.45,0,12.9,0.402,18.947,1.209L428,238.464v-42.933L407.844,175.375z"/>
<path style="fill:#FC4629;" d="M307.063,235.844c0,4.434,1.613,8.869,4.837,13.101c3.628,4.839,9.071,9.474,16.125,13.304
	c14.11,8.264,34.871,13.908,59.663,13.908l30.234,0.202H428v35.474l-4.434,3.024c-4.839,3.224-10.078,6.248-15.722,9.071
	c-42.53,21.566-106.089,32.853-151.844,32.853c-65.306,0-122.617-25.801-151.44-63.694C91.458,276.156,84,256.604,84,235.844
	l16.125-8.063l4.031-2.015L86.62,215.688c13.706-57.043,84.723-100.781,169.38-100.781c43.94,0,125.036,17.738,166.961,41.724
	l5.039,2.821v36.08h-40.313C340.119,195.531,307.063,216.695,307.063,235.844z"/>
<path style="fill:#FF2615;" d="M307.063,235.844c0,4.434,1.613,8.869,4.837,13.101c3.628,4.839,9.071,9.474,16.125,13.304
	c14.11,8.264,34.871,13.908,59.663,13.908l30.234,0.202H428v35.474l-4.434,3.024c-4.839,3.224-10.078,6.248-15.722,9.071
	c-42.53,21.566-106.089,32.853-151.844,32.853V114.906c43.94,0,125.036,17.738,166.961,41.724l5.039,2.821v36.08h-40.313
	C340.119,195.531,307.063,216.695,307.063,235.844z"/>
<g>
	<path style="fill:#EFE6DE;" d="M185.453,225.766c0-5.571-4.508-10.078-10.078-10.078H86.579C85.008,222.258,84,228.963,84,235.844
		h91.375C180.946,235.844,185.453,231.336,185.453,225.766z"/>
	<path style="fill:#EFE6DE;" d="M256,207.221c-9.071-7.256-23.381-11.69-40.313-11.69c-28.823,0-50.391,13.101-50.391,30.234
		c0,17.132,21.567,30.234,50.391,30.234c16.932,0,31.242-4.435,40.313-11.691c6.248-5.039,10.078-11.489,10.078-18.543
		C266.078,218.71,262.248,212.26,256,207.221z"/>
</g>
<path style="fill:#DFCCBF;" d="M266.078,225.766c0,7.054-3.83,13.504-10.078,18.543v-37.088
	C262.248,212.26,266.078,218.71,266.078,225.766z"/>
<g>
</g>
<g>
</g>
<g>
</g>
<g>
</g>
<g>
</g>
<g>
</g>
<g>
</g>
<g>
</g>
<g>
</g>
<g>
</g>
<g>
</g>
<g>
</g>
<g>
</g>
<g>
</g>
<g>
</g>
</svg>
