<svg id="Layer_1" enable-background="new 0 0 512 512" height="512" viewBox="0 0 512 512" width="512" xmlns="http://www.w3.org/2000/svg"><g><path d="m319.943 164.634h64.303v30h-64.303z" fill="#e8e6f2" transform="matrix(.707 -.707 .707 .707 -23.894 301.582)"/><path d="m378.907 372h-60l15-30h45z" fill="#e8e6f2"/><path d="m346.648 80.08h120v90h-120z" fill="#ffe666" transform="matrix(.707 -.707 .707 .707 30.66 324.179)"/><path d="m376.648 110.08h60v30h-60z" fill="#ff9" transform="matrix(.707 -.707 .707 .707 30.66 324.179)"/><path d="m363.907 312h120v90h-120z" fill="#ffe666"/><path d="m393.907 342h60v30h-60z" fill="#ff9"/><path d="m333.907 372v-30h-144.33l-20 50z" fill="#ff8080"/><path d="m276.742 105.668v-105.668h-30v105.668l-57.165 74.002-20 25.997 20 26.716c13.027 16.137 35.99 35.007 72.165 35.007 61.849 0 85.092-55.162 86.051-57.51l3.269-8.002z" fill="#f37"/><path d="m189.577 179.671-57.165-74.003v-105.668h-30v105.668l-74.319 96.21 3.269 8.002c.959 2.348 24.203 57.51 86.051 57.51 36.175 0 59.138-18.87 72.165-35.007z" fill="#ff8080"/><path d="m189.577 342h-144.329v30l144.329 20z" fill="#ffb366"/><path d="m189.577 372-20 57.486 20 82.514h41.505l2.845-11.354c14.308-57.09 88.355-79.009 89.077-79.217l10.903-3.095v-46.334z" fill="#f37"/><path d="m45.248 372v46.334l10.904 3.095c.745.211 74.691 21.821 89.076 79.217l2.845 11.354h41.505v-140z" fill="#ff8080"/></g></svg>