<svg id="Layer_1" enable-background="new 0 0 512 512" height="512" viewBox="0 0 512 512" width="512" xmlns="http://www.w3.org/2000/svg"><g><path d="m457.826 97.718s-108.874-9.378-221.826-9.378l20 276 33.994 113.677 222.006-27.636c0-246.353-54.174-352.663-54.174-352.663z" fill="#f37"/><path d="m54.174 97.718s-54.174 106.311-54.174 352.664l222.006 27.636 33.994-113.678v-276c-112.952 0-201.826 9.378-201.826 9.378z" fill="#ff8080"/><path d="m172.285 124.897h82.452v30h-82.452z" fill="#fff5f5" transform="matrix(.258 -.966 .966 .258 23.325 310.155)"/><path d="m283.49 99.061h30v113.54h-30z" fill="#e8e6f2" transform="matrix(.982 -.187 .187 .982 -23.886 58.603)"/><path d="m430.208 376.859h31.867v30h-31.867z" fill="#ffe666"/><path d="m256 44.606-20 32.394 20 31.34c112.952 0 201.826-10.622 201.826-10.622v-63.735s-88.874 10.623-201.826 10.623z" fill="#b32453"/><path d="m54.174 33.983v63.735s88.874 10.622 201.826 10.622v-63.734c-112.952 0-201.826-10.623-201.826-10.623z" fill="#f37"/></g></svg>